HIERARCHY
ROOT hip
{
  OFFSET 0 0 0
  CHANNELS 6 Xposition Yposition Zposition Zrotation Yrotation Xrotation
  JOINT abdomen
  {
    OFFSET 0 20.6881 -0.73152
    CHANNELS 3 Zrotation Xrotation Yrotation
    JOINT chest
    {
      OFFSET 0 11.7043 -0.48768
      CHANNELS 3 Zrotation Xrotation Yrotation
      JOINT neck
      {
        OFFSET 0 22.1894 -2.19456
        CHANNELS 3 Zrotation Xrotation Yrotation
        JOINT head
        {
          OFFSET -0.24384 7.07133 1.2192
          CHANNELS 3 Zrotation Xrotation Yrotation
          JOINT leftEye
          {
            OFFSET 4.14528 8.04674 8.04672
            CHANNELS 3 Zrotation Xrotation Yrotation
            End Site
            {
              OFFSET 1 0 0
            }
          }
          JOINT rightEye
          {
            OFFSET -3.6576 8.04674 8.04672
            CHANNELS 3 Zrotation Xrotation Yrotation
            End Site
            {
              OFFSET 1 0 0
            }
          }
        }
      }
      JOINT rCollar
      {
        OFFSET -2.68224 19.2634 -4.8768
        CHANNELS 3 Zrotation Xrotation Yrotation
        JOINT rShldr
        {
          OFFSET -8.77824 -1.95073 1.46304
          CHANNELS 3 Zrotation Xrotation Yrotation
          JOINT rForeArm
          {
            OFFSET -28.1742 -1.7115 0.48768
            CHANNELS 3 Zrotation Xrotation Yrotation
            JOINT rHand
            {
              OFFSET -22.5879 0.773209 7.07136
              CHANNELS 3 Zrotation Xrotation Yrotation
              JOINT rThumb1
              {
                OFFSET -1.2192 -0.487915 3.41376
                CHANNELS 3 Zrotation Xrotation Yrotation
                JOINT rThumb2
                {
                  OFFSET -3.37035 -0.52449 3.41376
                  CHANNELS 3 Zrotation Xrotation Yrotation
                  End Site
                  {
                    OFFSET -1.78271 -1.18214 1.43049
                  }
                }
              }
              JOINT rIndex1
              {
                OFFSET -7.75947 0.938293 5.60832
                CHANNELS 3 Zrotation Xrotation Yrotation
                JOINT rIndex2
                {
                  OFFSET -2.54057 -0.884171 1.56538
                  CHANNELS 3 Zrotation Xrotation Yrotation
                  End Site
                  {
                    OFFSET -1.62519 -0.234802 1.16502
                  }
                }
              }
              JOINT rMid1
              {
                OFFSET -8.24714 1.18213 3.41376
                CHANNELS 3 Zrotation Xrotation Yrotation
                JOINT rMid2
                {
                  OFFSET -3.10165 -0.590103 1.0647
                  CHANNELS 3 Zrotation Xrotation Yrotation
                  End Site
                  {
                    OFFSET -2.48547 -0.328903 0.83742
                  }
                }
              }
              JOINT rRing1
              {
                OFFSET -8.82822 0.546677 1.51678
                CHANNELS 3 Zrotation Xrotation Yrotation
                JOINT rRing2
                {
                  OFFSET -2.60934 -0.819778 -0.0198488
                  CHANNELS 3 Zrotation Xrotation Yrotation
                  End Site
                  {
                    OFFSET -2.33842 -0.294052 0.168128
                  }
                }
              }
              JOINT rPinky1
              {
                OFFSET -8.27202 -0.0477905 -0.4584
                CHANNELS 3 Zrotation Xrotation Yrotation
                JOINT rPinky2
                {
                  OFFSET -1.82734 -0.647385 -0.700984
                  CHANNELS 3 Zrotation Xrotation Yrotation
                  End Site
                  {
                    OFFSET -1.69225 -0.51767 -0.607171
                  }
                }
              }
            }
          }
        }
      }
      JOINT lCollar
      {
        OFFSET 2.68224 19.2634 -4.8768
        CHANNELS 3 Zrotation Xrotation Yrotation
        JOINT lShldr
        {
          OFFSET 8.77824 -1.95073 1.46304
          CHANNELS 3 Zrotation Xrotation Yrotation
          JOINT lForeArm
          {
            OFFSET 28.1742 -1.7115 0.48768
            CHANNELS 3 Zrotation Xrotation Yrotation
            JOINT lHand
            {
              OFFSET 22.5879 0.773209 7.07136
              CHANNELS 3 Zrotation Xrotation Yrotation
              JOINT lThumb1
              {
                OFFSET 1.2192 -0.487915 3.41376
                CHANNELS 3 Zrotation Xrotation Yrotation
                JOINT lThumb2
                {
                  OFFSET 3.37035 -0.52449 3.41376
                  CHANNELS 3 Zrotation Xrotation Yrotation
                  End Site
                  {
                    OFFSET 1.78271 -1.18214 1.43049
                  }
                }
              }
              JOINT lIndex1
              {
                OFFSET 7.75947 0.938293 5.60832
                CHANNELS 3 Zrotation Xrotation Yrotation
                JOINT lIndex2
                {
                  OFFSET 2.54057 -0.884171 1.56538
                  CHANNELS 3 Zrotation Xrotation Yrotation
                  End Site
                  {
                    OFFSET 1.62519 -0.234802 1.16502
                  }
                }
              }
              JOINT lMid1
              {
                OFFSET 8.24714 1.18213 3.41376
                CHANNELS 3 Zrotation Xrotation Yrotation
                JOINT lMid2
                {
                  OFFSET 3.10165 -0.590103 1.0647
                  CHANNELS 3 Zrotation Xrotation Yrotation
                  End Site
                  {
                    OFFSET 2.48547 -0.328903 0.83742
                  }
                }
              }
              JOINT lRing1
              {
                OFFSET 8.82822 0.546677 1.51678
                CHANNELS 3 Zrotation Xrotation Yrotation
                JOINT lRing2
                {
                  OFFSET 2.60934 -0.819778 -0.0198488
                  CHANNELS 3 Zrotation Xrotation Yrotation
                  End Site
                  {
                    OFFSET 2.33842 -0.294052 0.168128
                  }
                }
              }
              JOINT lPinky1
              {
                OFFSET 8.27202 -0.0477905 -0.4584
                CHANNELS 3 Zrotation Xrotation Yrotation
                JOINT lPinky2
                {
                  OFFSET 1.82734 -0.647385 -0.700984
                  CHANNELS 3 Zrotation Xrotation Yrotation
                  End Site
                  {
                    OFFSET 1.69225 -0.51767 -0.607171
                  }
                }
              }
            }
          }
        }
      }
    }
  }
  JOINT rButtock
  {
    OFFSET -8.77824 4.35084 1.2192
    CHANNELS 3 Zrotation Xrotation Yrotation
    JOINT rThigh
    {
      OFFSET 0 -1.70687 -2.19456
      CHANNELS 3 Zrotation Xrotation Yrotation
      JOINT rShin
      {
        OFFSET 0 -36.8199 0.73152
        CHANNELS 3 Zrotation Xrotation Yrotation
        JOINT rFoot
        {
          OFFSET 0.73152 -45.1104 -5.12064
          CHANNELS 3 Zrotation Xrotation Yrotation
          End Site
          {
            OFFSET -1.1221 -3.69964 12.103
          }
        }
      }
    }
  }
  JOINT lButtock
  {
    OFFSET 8.77824 4.35084 1.2192
    CHANNELS 3 Zrotation Xrotation Yrotation
    JOINT lThigh
    {
      OFFSET 0 -1.70687 -2.19456
      CHANNELS 3 Zrotation Xrotation Yrotation
      JOINT lShin
      {
        OFFSET 0 -36.8199 0.73152
        CHANNELS 3 Zrotation Xrotation Yrotation
        JOINT lFoot
        {
          OFFSET -0.73152 -45.1104 -5.12064
          CHANNELS 3 Zrotation Xrotation Yrotation
          End Site
          {
            OFFSET 1.1221 -3.69964 12.103
          }
        }
      }
    }
  }
}
MOTION
Frames:	4
Frame Time:	0.00833333
72.2455 38.2059 -21.419 -177.617 -1.538 125.028 -0.821484 41.0123 1.93671 1.96306 -11.939 -0.688174 -5.43739 24.0432 -1.24942 9.93684 -16.1147 -4.49448 -0.0 0.0 0.0 -0.0 0.0 0.0 4.26399e-14 9.54147e-14 -2.9271e-14 29.8269 -39.1643 88.9419 -18.6596 -11.4139 35.5174 -0.0114561 3.05445 0.429687 1.40357e-09 8.61876e-10 1.96949e-10 2.43002e-09 1.49194e-09 3.34968e-10 1.40358e-09 8.61877e-10 1.96934e-10 7.73091 5.47488 0.417314 1.40357e-09 8.61877e-10 1.96943e-10 2.90554 0.965183 0.102902 1.40358e-09 8.61877e-10 1.96942e-10 10.2786 0.731801 0.0259123 1.40357e-09 8.61877e-10 1.96943e-10 2.22167 -0.733487 -0.20892 4.24427e-14 9.5417e-14 -2.95692e-14 -22.7747 -34.7474 -80.8443 20.7926 -14.0424 -40.6406 0.0305189 4.98043 -0.701739 -1.83327e-10 1.71246e-09 9.72079e-10 -3.15369e-10 2.96189e-09 1.6826e-09 -1.83331e-10 1.71246e-09 9.72102e-10 -7.73091 5.47488 -0.417314 -1.83326e-10 1.71246e-09 9.72079e-10 -2.90554 0.965183 -0.102902 -1.83335e-10 1.71246e-09 9.72078e-10 -10.2786 0.731801 -0.0259123 -1.83322e-10 1.71247e-09 9.7207e-10 -2.22167 -0.733487 0.20892 -2.03217e-16 0.0 -3.88251e-19 -22.4818 -51.5145 -28.6411 -176.69 62.7338 177.48 -1.40861 -3.23562 -4.91471 2.03217e-16 0.0 3.88251e-19 55.4215 -48.9089 40.5559 177.314 52.0084 -178.24 -4.04234 -0.927962 -20.709
72.2221 38.2793 -22.6805 -177.271 -1.574 124.505 -1.2992 40.8683 2.06847 2.20913 -11.765 -0.66975 -5.45126 24.2348 -1.27035 9.9479 -16.0812 -4.5938 -0.0 0.0 0.0 -0.0 0.0 0.0 7.98758e-14 4.5818e-14 -3.17582e-14 29.2189 -39.6155 88.469 -18.7398 -11.5045 35.7023 -0.0102002 2.89412 0.407087 9.24604e-10 3.1836e-10 4.04181e-10 1.60051e-09 5.50854e-10 6.95945e-10 9.24612e-10 3.1836e-10 4.04168e-10 7.73091 5.47488 0.417314 9.24604e-10 3.1836e-10 4.04175e-10 2.90554 0.965183 0.102902 9.24617e-10 3.1836e-10 4.04175e-10 10.2786 0.731801 0.0259123 9.24604e-10 3.1836e-10 4.04177e-10 2.22167 -0.733487 -0.20892 7.96852e-14 4.58202e-14 -3.2035e-14 -22.0858 -34.9998 -80.4637 20.7946 -14.045 -40.6456 0.0197348 4.04821 -0.569863 6.2351e-11 1.50678e-09 8.95762e-10 1.09967e-10 2.60723e-09 1.5513e-09 6.23472e-11 1.50678e-09 8.95782e-10 -7.73091 5.47488 -0.417314 6.23523e-11 1.50677e-09 8.95763e-10 -2.90554 0.965183 -0.102902 6.23446e-11 1.50678e-09 8.95761e-10 -10.2786 0.731801 -0.0259123 6.23569e-11 1.50678e-09 8.95752e-10 -2.22167 -0.733487 0.20892 -2.03217e-16 0.0 -3.88251e-19 -23.978 -50.4399 -29.1735 -176.802 61.3017 177.629 -1.40596 -4.15327 -4.73097 2.03217e-16 0.0 3.88251e-19 52.6247 -48.8899 38.8331 177.224 53.4622 -178.031 -3.91659 -0.790848 -20.8161
72.0073 38.401 -23.9062 -177.52 -2.4311 123.982 -1.9999 40.7612 2.21606 2.55012 -11.59 -0.661633 -5.67634 24.5574 -1.2444 10.2669 -16.2225 -4.57926 -0.0 0.0 0.0 -0.0 0.0 0.0 1.29559e-13 -3.81682e-14 -3.4601e-14 28.6191 -40.1013 88.0322 -18.8291 -11.6058 35.911 -0.00874437 2.68857 0.378128 4.47859e-11 -6.08976e-10 7.04616e-10 7.66842e-11 -1.05466e-09 1.2201e-09 4.47942e-11 -6.08976e-10 7.04605e-10 7.73091 5.47488 0.417314 4.47865e-11 -6.08977e-10 7.04611e-10 2.90554 0.965183 0.102902 4.47982e-11 -6.08977e-10 7.04611e-10 10.2786 0.731801 0.0259123 4.47855e-11 -6.08978e-10 7.04616e-10 2.22167 -0.733487 -0.20892 1.29416e-13 -3.81664e-14 -3.48463e-14 -21.4066 -35.2825 -80.0564 20.8117 -14.0681 -40.6889 0.0114113 3.05646 -0.429885 5.21753e-10 9.56012e-10 6.72258e-10 9.0509e-10 1.65628e-09 1.16523e-09 5.21749e-10 9.56009e-10 6.72274e-10 -7.73091 5.47488 -0.417314 5.21754e-10 9.5601e-10 6.7226e-10 -2.90554 0.965183 -0.102902 5.21749e-10 9.5601e-10 6.72259e-10 -10.2786 0.731801 -0.0259123 5.2176e-10 9.56013e-10 6.72249e-10 -2.22167 -0.733487 0.20892 -2.03217e-16 0.0 -3.88251e-19 -25.8841 -49.2379 -29.8589 -176.905 59.8735 177.77 -1.37142 -5.00225 -4.48301 2.03217e-16 0.0 3.88251e-19 49.595 -48.8 36.99 177.151 54.8225 -177.871 -3.72015 -0.381963 -20.9685
71.7144 38.4694 -25.1739 -177.856 -3.6539 123.396 -2.60773 40.6534 2.32436 2.88403 -11.4022 -0.659011 -5.97827 24.9224 -1.20907 10.66 -16.4134 -4.54563 -0.0 0.0 0.0 -0.0 0.0 0.0 1.74728e-13 -1.21359e-13 -2.78337e-14 28.0404 -40.5983 87.6202 -18.9378 -11.7305 36.1632 -0.00755202 2.49433 0.350775 -9.18153e-10 -1.55502e-09 9.83529e-10 -1.59095e-09 -2.69261e-09 1.70728e-09 -9.18144e-10 -1.55503e-09 9.8352e-10 7.73091 5.47488 0.417314 -9.18151e-10 -1.55503e-09 9.83525e-10 2.90554 0.965183 0.102902 -9.18141e-10 -1.55503e-09 9.83525e-10 10.2786 0.731801 0.0259123 -9.18153e-10 -1.55503e-09 9.83533e-10 2.22167 -0.733487 -0.20892 1.74641e-13 -1.21358e-13 -2.80492e-14 -20.699 -35.5864 -79.6004 20.8364 -14.1015 -40.7513 0.00531074 2.01376 -0.283044 9.61438e-10 3.65679e-10 4.14416e-10 1.66611e-09 6.36878e-10 7.19561e-10 9.61434e-10 3.65675e-10 4.14426e-10 -7.73091 5.47488 -0.417314 9.61438e-10 3.65677e-10 4.14418e-10 -2.90554 0.965183 -0.102902 9.61437e-10 3.65676e-10 4.14418e-10 -10.2786 0.731801 -0.0259123 9.61446e-10 3.65679e-10 4.14408e-10 -2.22167 -0.733487 0.20892 -2.03217e-16 0.0 -3.88251e-19 -27.7774 -47.958 -30.5299 -176.992 58.4908 177.892 -1.31566 -5.79924 -4.1955 2.03217e-16 0.0 3.88251e-19 46.9793 -48.5419 35.3583 177.095 55.8674 -177.746 -3.52567 0.0770531 -21.1213
